<svg width="237" height="54" viewBox="0 0 237 54" fill="none" xmlns="http://www.w3.org/2000/svg">
<path d="M68.3567 28.2803L66.9569 33.9237H64.01L62.4628 28.2803L64.5625 25.4033H60.9894L58.8897 27.8746L59.1844 28.2803L61.6524 36.9852H66.1465L64.8572 42.1492H62.4997L60.842 41.8172V45.0262H70.1617L68.2462 42.1492L71.7088 28.3172L73.9927 25.4401H66.3307L68.3567 28.2803ZM95.6157 28.2803L98.1574 25.4033H87.6222L90.1639 28.2803L86.1119 42.1123L83.6807 44.9893H91.4163L89.3167 42.1123L90.4586 38.2024H95.6157L96.8681 42.1123L94.7685 44.9893H102.541L100.11 42.1123L95.6157 28.2803ZM91.269 35.3992L92.8898 29.8295L94.6948 35.3992H91.269ZM53.8799 34.8459L57.4899 28.3172L59.9211 25.4401H52.0381L53.8063 28.3172L51.0067 33.3705H48.5386V28.2803L50.491 25.4033H43.0132L44.9655 28.2803V33.3336H42.4974L39.6979 28.2803L41.466 25.4033H33.583L36.0142 28.2803L39.6242 34.809L36.0142 41.9278L33.583 44.8418H41.466L39.6979 41.9647L42.4238 36.5795H44.9655V41.9278L43.0132 44.8049H50.4541L48.5018 41.9278V36.5795H51.0435L53.7694 41.9278L52.0013 44.8049H59.8843L57.4531 41.9278L53.8799 34.8459ZM79.3708 38.2024C81.9494 38.2024 83.5702 37.0959 84.4542 36.1737C85.5962 34.9934 86.2224 33.4074 86.2224 31.7106C86.2224 30.0508 85.5962 28.5016 84.4542 27.3213C83.5702 26.436 81.9862 25.4033 79.3708 25.4033H75.9082H72.4455L74.3979 28.2803V42.1123L72.4455 44.9893H79.4076L77.4553 42.1123V38.2024H79.3708ZM77.4185 28.6492H79.3708C80.5496 28.6492 81.5073 28.9811 82.1335 29.6082C82.6493 30.1246 82.9439 30.8623 82.9439 31.6737C82.9439 33.8869 81.1021 34.8828 79.3708 34.8828H77.4185V28.6492ZM135.731 28.2434H139.893L142.766 30.936L142.73 25.0713L141.146 25.4033H130.721L132.673 28.2803V42.1123L130.721 44.9893H141.146L142.73 45.3213L142.766 39.4565L139.893 42.1492H135.731V42.1123V36.7639H137.646L139.377 37.0959V33.5549L137.646 33.8869H135.731V28.2803V28.2434ZM114.66 38.977C114.66 37.4278 114.071 35.9893 112.966 34.9197C112.855 34.809 112.745 34.6983 112.597 34.5877C113.555 33.6656 114.144 32.4115 114.144 30.8254C114.144 29.3869 113.555 28.059 112.487 27.0631C111.713 26.3623 110.424 25.477 108.214 25.4033H100.515L102.467 28.2803V42.1123L100.515 44.9893H108.214C110.608 44.9524 112.082 43.9565 112.929 43.1082C114.034 42.0385 114.66 40.5262 114.66 38.977ZM105.562 28.7598H107.993C108.987 28.7598 109.798 29.018 110.277 29.4975C110.645 29.8664 110.866 30.3459 110.866 30.8623C110.866 31.9319 109.945 33.1123 107.956 33.1123C106.925 33.1123 106.114 33.1123 105.525 33.0754V28.7598H105.562ZM108.177 41.7434H105.562V36.4688C106.151 36.4319 106.998 36.3951 108.177 36.3951C109.245 36.3951 110.129 36.6901 110.682 37.2434C111.124 37.686 111.382 38.3131 111.382 38.977C111.382 40.3418 110.387 41.7434 108.177 41.7434ZM155.917 34.5877C156.875 33.6656 157.464 32.4115 157.464 30.8254C157.464 29.3869 156.875 28.059 155.807 27.0631C155.033 26.3623 153.744 25.477 151.534 25.4033H143.835L145.787 28.2803V42.1123L143.835 44.9893H151.534C153.928 44.9524 155.401 43.9565 156.249 43.1082C157.317 42.0016 157.943 40.4893 157.943 38.9401C157.943 37.391 157.354 35.9524 156.249 34.8828C156.175 34.809 156.064 34.6983 155.917 34.5877ZM148.881 28.7598H151.313C152.307 28.7598 153.118 29.018 153.596 29.4975C153.965 29.8664 154.186 30.3459 154.186 30.8623C154.186 31.9319 153.265 33.1123 151.276 33.1123C150.244 33.1123 149.434 33.1123 148.844 33.0754V28.7598H148.881ZM151.497 41.7434H148.881V36.4688C149.471 36.4319 150.318 36.3951 151.497 36.3951C152.565 36.3951 153.449 36.6901 154.002 37.2434C154.444 37.686 154.701 38.3131 154.701 38.977C154.701 40.3418 153.707 41.7434 151.497 41.7434ZM177.908 25.4033H170.21L172.162 28.2803V42.1123L170.21 44.9893H177.908L175.219 42.1123V28.2803L177.908 25.4033ZM170.873 38.5344C170.873 36.9115 170.32 35.3992 169.326 34.2557C168.515 33.3336 167.042 32.2639 164.611 32.2639C163.874 32.2639 163.321 32.2639 162.842 32.2639V28.2803L165.531 25.4033H157.833L159.785 28.2803V42.1123L157.833 44.9893H165.421C168.92 44.5836 170.873 41.4483 170.873 38.5344ZM164.574 41.7434H162.806V35.5836C163.248 35.5836 163.8 35.5836 164.574 35.5836C165.568 35.5836 166.342 35.8787 166.858 36.4688C167.336 36.9852 167.594 37.7598 167.594 38.5713C167.594 40.0836 166.673 41.7434 164.574 41.7434ZM130.463 25.4033H116.465L118.418 28.2803C118.418 34.5139 116.539 40.268 115.876 42.1492L113.113 44.9893H119.854L119.044 42.1492C119.928 39.4934 121.401 34.1451 121.401 28.2803H125.453V42.1123L123.501 44.9893H130.463L128.511 42.1123V28.2803L130.463 25.4033ZM193.822 45.0262L191.685 42.2229L188.333 34.809L191.354 28.3172L193.564 25.4401H186.455L188.186 28.1328L185.902 33.0385L183.655 28.0959L185.386 25.4033H178.277L180.487 28.2803L183.471 34.7721L180.119 42.186L177.982 44.9893H185.092L183.323 42.2598L185.865 36.6164L188.407 42.2598L186.639 44.9893H193.822V45.0262Z" fill="#2C479E"/>
<path d="M109.647 10.2546H108.247C108.137 10.2546 108.026 10.2546 107.953 10.2912V9.55825C107.953 9.5216 107.953 9.48495 107.953 9.44831C107.953 9.41166 107.953 9.37501 107.953 9.33836C107.953 8.97189 107.658 8.67871 107.29 8.67871H106.553C106.185 8.67871 105.89 8.97189 105.89 9.33836C105.89 9.70484 106.185 9.99802 106.553 9.99802H106.627V10.3278C106.516 10.3278 106.442 10.2912 106.332 10.2912H104.932C104.048 10.2912 103.312 11.0241 103.312 11.9037V20.0028C103.312 20.8823 104.048 21.6153 104.932 21.6153H106.332C106.442 21.6153 106.553 21.6153 106.627 21.5786V22.8613C106.406 22.9712 106.258 23.1911 106.258 23.4476C106.258 23.8141 106.553 24.1073 106.921 24.1073H107.658C108.026 24.1073 108.321 23.8141 108.321 23.4476C108.321 23.1911 108.174 22.9712 107.953 22.8613V21.5786C108.063 21.6153 108.137 21.6153 108.247 21.6153H109.647C110.531 21.6153 111.268 20.8823 111.268 20.0028V11.867C111.268 10.9875 110.568 10.2546 109.647 10.2546ZM106.627 20.0028C106.627 20.186 106.479 20.2959 106.332 20.2959H104.932C104.748 20.2959 104.638 20.1494 104.638 20.0028V11.867C104.638 11.6838 104.785 11.5739 104.932 11.5739H106.332C106.516 11.5739 106.627 11.7204 106.627 11.867V20.0028ZM109.979 20.0028C109.979 20.186 109.831 20.2959 109.684 20.2959H108.284C108.1 20.2959 107.99 20.1494 107.99 20.0028V11.867C107.99 11.6838 108.137 11.5739 108.284 11.5739H109.684C109.868 11.5739 109.979 11.7204 109.979 11.867V20.0028ZM100.807 10.2546H100.07C99.7018 10.2546 99.4071 10.5477 99.4071 10.9142C99.4071 11.1707 99.5544 11.3906 99.7754 11.5006V16.2281C99.7754 16.4113 99.6281 16.5213 99.4808 16.5213H97.4549C97.2707 16.5213 97.1602 16.3747 97.1602 16.2281V11.5006C97.3812 11.3906 97.5285 11.1707 97.5285 10.9142C97.5285 10.5477 97.2339 10.2546 96.8655 10.2546H96.1288C95.7605 10.2546 95.4658 10.5477 95.4658 10.9142C95.4658 11.1707 95.6131 11.3906 95.8341 11.5006V16.2281C95.8341 17.1076 96.5708 17.8406 97.4549 17.8406H99.4808C99.5913 17.8406 99.7018 17.8406 99.7754 17.8039V20.0028C99.7754 20.186 99.6281 20.2959 99.4808 20.2959H97.4549C97.2707 20.2959 97.1602 20.1494 97.1602 20.0028C97.1602 19.6363 96.8655 19.3431 96.4972 19.3431C96.1288 19.3431 95.8341 19.6363 95.8341 20.0028C95.8341 20.8823 96.5708 21.6153 97.4549 21.6153H99.4808C100.365 21.6153 101.101 20.8823 101.101 20.0028V11.5006C101.322 11.3906 101.47 11.1707 101.47 10.9142C101.47 10.5477 101.175 10.2546 100.807 10.2546ZM138.488 10.2546H137.752C137.383 10.2546 137.089 10.5477 137.089 10.9142C137.089 11.1707 137.236 11.3906 137.457 11.5006V16.2281C137.457 16.4113 137.31 16.5213 137.162 16.5213H135.137C134.952 16.5213 134.842 16.3747 134.842 16.2281V11.5006C135.063 11.3906 135.21 11.1707 135.21 10.9142C135.21 10.5477 134.916 10.2546 134.547 10.2546H133.81C133.442 10.2546 133.147 10.5477 133.147 10.9142C133.147 11.1707 133.295 11.3906 133.516 11.5006V16.2281C133.516 17.1076 134.253 17.8406 135.137 17.8406H137.162C137.273 17.8406 137.383 17.8406 137.457 17.8039V20.0028C137.457 20.186 137.31 20.2959 137.162 20.2959H135.137C134.952 20.2959 134.842 20.1494 134.842 20.0028C134.842 19.6363 134.547 19.3431 134.179 19.3431C133.81 19.3431 133.516 19.6363 133.516 20.0028C133.516 20.8823 134.253 21.6153 135.137 21.6153H137.162C138.046 21.6153 138.783 20.8823 138.783 20.0028V11.5006C139.004 11.3906 139.151 11.1707 139.151 10.9142C139.151 10.5477 138.857 10.2546 138.488 10.2546ZM94.4344 10.9142C94.4344 10.5477 94.1398 10.2546 93.7714 10.2546H93.0347C92.6664 10.2546 92.3717 10.5477 92.3717 10.9142C92.3717 11.1707 92.519 11.3906 92.74 11.5006V15.1287H89.5354V11.5006C89.7565 11.3906 89.9038 11.1707 89.9038 10.9142C89.9038 10.5477 89.6091 10.2546 89.2408 10.2546H88.5041C88.1357 10.2546 87.8411 10.5477 87.8411 10.9142C87.8411 11.1707 87.9884 11.3906 88.2094 11.5006V20.3692C87.9884 20.4792 87.8411 20.6991 87.8411 20.9556C87.8411 21.3221 88.1357 21.6153 88.5041 21.6153H89.2408C89.6091 21.6153 89.9038 21.3221 89.9038 20.9556C89.9038 20.6991 89.7565 20.4792 89.5354 20.3692V16.448H92.74V20.3692C92.519 20.4792 92.3717 20.6991 92.3717 20.9556C92.3717 21.3221 92.6664 21.6153 93.0347 21.6153H93.7714C94.1398 21.6153 94.4344 21.3221 94.4344 20.9556C94.4344 20.6991 94.2871 20.4792 94.0661 20.3692V11.5006C94.2871 11.3906 94.4344 11.1707 94.4344 10.9142ZM143.829 10.2546H141.104C140.735 10.2546 140.441 10.5477 140.441 10.9142C140.441 11.1707 140.588 11.3906 140.809 11.5006V20.3692C140.588 20.4792 140.441 20.6991 140.441 20.9556C140.441 21.3221 140.735 21.6153 141.104 21.6153H141.84C142.209 21.6153 142.503 21.3221 142.503 20.9556C142.503 20.6991 142.356 20.4792 142.135 20.3692V19.0866C142.246 19.1232 142.319 19.1232 142.43 19.1232H143.829C144.714 19.1232 145.45 18.3903 145.45 17.5107V11.867C145.45 10.9875 144.714 10.2546 143.829 10.2546ZM144.124 17.5107C144.124 17.694 143.977 17.8039 143.829 17.8039H142.43C142.246 17.8039 142.135 17.6573 142.135 17.5107V11.867C142.135 11.6838 142.282 11.5739 142.43 11.5739H143.829C144.014 11.5739 144.124 11.7204 144.124 11.867V17.5107ZM79.8848 10.9142C79.8848 10.5477 79.5901 10.2546 79.2218 10.2546H78.4851C78.1168 10.2546 77.8221 10.5477 77.8221 10.9142C77.8221 11.0608 77.8958 11.2074 77.9694 11.3173L76.3487 16.7778L74.7648 11.354C74.8753 11.244 74.9858 11.0608 74.9858 10.8776C74.9858 10.5111 74.6912 10.2179 74.3228 10.2179H73.5861C73.2178 10.2179 72.9231 10.5111 72.9231 10.8776C72.9231 11.1341 73.0704 11.354 73.2914 11.4639V20.3692C73.0704 20.4792 72.9231 20.6991 72.9231 20.9556C72.9231 21.3221 73.2178 21.6153 73.5861 21.6153H74.3228C74.6912 21.6153 74.9858 21.3221 74.9858 20.9556C74.9858 20.6991 74.8385 20.4792 74.6175 20.3692V15.4951L75.7593 19.3065C75.7962 19.3798 75.7962 19.4164 75.833 19.4897C75.833 19.4897 75.833 19.5264 75.8699 19.5264C75.9067 19.563 75.9435 19.5996 75.9804 19.6729C75.9804 19.6729 75.9804 19.6729 76.0172 19.6729C76.054 19.7096 76.1277 19.7462 76.1645 19.7462C76.1645 19.7462 76.1645 19.7462 76.2014 19.7462C76.275 19.7462 76.3119 19.7829 76.3855 19.7829C76.4592 19.7829 76.496 19.7829 76.5697 19.7462H76.6065C76.6434 19.7096 76.717 19.7096 76.7539 19.6729C76.7539 19.6729 76.7539 19.6729 76.7907 19.6729C76.8276 19.6363 76.8644 19.5996 76.9012 19.5264C76.9012 19.5264 76.9012 19.4897 76.9381 19.4897C76.9749 19.4531 77.0117 19.3798 77.0117 19.3065L78.2273 15.2386V20.3692C78.0063 20.4792 77.8589 20.6991 77.8589 20.9556C77.8589 21.3221 78.1536 21.6153 78.5219 21.6153H79.2586C79.627 21.6153 79.9216 21.3221 79.9216 20.9556C79.9216 20.6991 79.7743 20.4792 79.5533 20.3692V11.5006C79.7006 11.3906 79.8848 11.1707 79.8848 10.9142ZM126.186 10.9142C126.186 10.5477 125.891 10.2546 125.523 10.2546H124.786C124.418 10.2546 124.123 10.5477 124.123 10.9142C124.123 11.1341 124.234 11.3173 124.381 11.4273L123.313 14.7622H121.95V11.5006C122.171 11.3906 122.318 11.1707 122.318 10.9142C122.318 10.5477 122.023 10.2546 121.655 10.2546H120.918C120.55 10.2546 120.255 10.5477 120.255 10.9142C120.255 11.1707 120.403 11.3906 120.624 11.5006V20.3692C120.403 20.4792 120.255 20.6991 120.255 20.9556C120.255 21.3221 120.55 21.6153 120.918 21.6153H121.655C122.023 21.6153 122.318 21.3221 122.318 20.9556C122.318 20.6991 122.171 20.4792 121.95 20.3692V16.0815H123.276L124.344 20.4425C124.197 20.5525 124.123 20.7357 124.123 20.9556C124.123 21.3221 124.418 21.6153 124.786 21.6153H125.154H125.523C125.891 21.6153 126.186 21.3221 126.186 20.9556C126.186 20.6258 125.965 20.3692 125.67 20.3326L124.455 15.4951L125.707 11.5739C126.002 11.4639 126.186 11.2074 126.186 10.9142ZM86.8834 20.2959L85.3732 10.8043C85.3732 10.7676 85.3731 10.7676 85.3363 10.731C85.3363 10.6943 85.3363 10.6943 85.3363 10.6943C85.3363 10.6577 85.2995 10.6577 85.2995 10.621C85.2995 10.621 85.2995 10.5844 85.2626 10.5844C85.2626 10.5477 85.2258 10.5477 85.2258 10.5111C85.2258 10.5111 85.2258 10.4744 85.189 10.4744C85.1521 10.4378 85.1521 10.4378 85.1153 10.4011C85.1153 10.4011 85.0785 10.4011 85.0785 10.3645C85.0416 10.3645 85.0416 10.3278 85.0048 10.3278C85.0048 10.3278 84.968 10.3278 84.968 10.2912C84.9311 10.2912 84.9311 10.2546 84.8943 10.2546H84.8575C84.8206 10.2546 84.8206 10.2546 84.7838 10.2546C84.747 10.2546 84.747 10.2546 84.7101 10.2546H82.5001C82.1317 10.2546 81.837 10.5477 81.837 10.9142C81.837 11.244 82.0581 11.5006 82.3527 11.5739L80.953 20.3326C80.6583 20.4059 80.4005 20.6624 80.4005 20.9923C80.4005 21.3587 80.6952 21.6519 81.0635 21.6519H81.8002C82.1686 21.6519 82.4632 21.3587 82.4632 20.9923C82.4632 20.809 82.3896 20.6258 82.2422 20.5158L82.7947 17.1076H82.8316H85.0048L85.5573 20.4792C85.41 20.5891 85.3363 20.7724 85.3363 20.9556C85.3363 21.3221 85.631 21.6153 85.9993 21.6153H86.736C87.1044 21.6153 87.399 21.3221 87.399 20.9556C87.399 20.6258 87.178 20.3692 86.8834 20.2959ZM83.0157 15.7517L83.6788 11.5739H84.1208L84.7838 15.7517H83.0157ZM118.819 20.2959L117.309 10.8043C117.309 10.7676 117.309 10.7676 117.272 10.731C117.272 10.6943 117.272 10.6943 117.272 10.6943C117.272 10.6577 117.235 10.6577 117.235 10.621C117.235 10.621 117.235 10.5844 117.198 10.5844C117.198 10.5477 117.161 10.5477 117.161 10.5111L117.124 10.4744C117.124 10.4378 117.088 10.4378 117.051 10.4011C117.051 10.4011 117.014 10.4011 117.014 10.3645C116.977 10.3645 116.977 10.3278 116.94 10.3278C116.94 10.3278 116.903 10.3278 116.903 10.2912C116.867 10.2912 116.867 10.2912 116.83 10.2546H116.793C116.756 10.2546 116.756 10.2546 116.719 10.2546C116.682 10.2546 116.682 10.2546 116.646 10.2546H114.436C114.067 10.2546 113.773 10.5477 113.773 10.9142C113.773 11.244 113.994 11.5006 114.288 11.5739L112.889 20.3326C112.594 20.4059 112.336 20.6624 112.336 20.9923C112.336 21.3587 112.631 21.6519 112.999 21.6519H113.736C114.104 21.6519 114.399 21.3587 114.399 20.9923C114.399 20.809 114.325 20.6258 114.178 20.5158L114.73 17.1076H114.767H116.94L117.493 20.4792C117.345 20.5891 117.272 20.7724 117.272 20.9556C117.272 21.3221 117.566 21.6153 117.935 21.6153H118.672C119.04 21.6153 119.335 21.3221 119.335 20.9556C119.371 20.6258 119.15 20.3692 118.819 20.2959ZM114.988 15.7517L115.651 11.5739H116.093L116.756 15.7517H114.988ZM152.044 20.2959L150.533 10.8043C150.533 10.7676 150.533 10.7676 150.497 10.731C150.497 10.6943 150.497 10.6943 150.497 10.6943C150.497 10.6577 150.46 10.6577 150.46 10.621C150.46 10.621 150.46 10.5844 150.423 10.5844C150.423 10.5477 150.386 10.5477 150.386 10.5111L150.349 10.4744C150.312 10.4378 150.312 10.4378 150.276 10.4011C150.276 10.4011 150.239 10.4011 150.239 10.3645C150.202 10.3645 150.202 10.3278 150.165 10.3278C150.165 10.3278 150.128 10.3278 150.128 10.2912C150.091 10.2912 150.091 10.2546 150.055 10.2546H150.018C149.981 10.2546 149.981 10.2546 149.944 10.2546C149.907 10.2546 149.907 10.2546 149.87 10.2546H147.66C147.292 10.2546 146.997 10.5477 146.997 10.9142C146.997 11.244 147.218 11.5006 147.513 11.5739L146.113 20.3326C145.819 20.4059 145.561 20.6624 145.561 20.9923C145.561 21.3587 145.855 21.6519 146.224 21.6519H146.96C147.329 21.6519 147.623 21.3587 147.623 20.9923C147.623 20.809 147.55 20.6258 147.402 20.5158L147.955 17.1076H147.992H150.165L150.718 20.4792C150.57 20.5891 150.497 20.7724 150.497 20.9556C150.497 21.3221 150.791 21.6153 151.16 21.6153H151.896C152.265 21.6153 152.559 21.3221 152.559 20.9556C152.596 20.6258 152.338 20.3692 152.044 20.2959ZM148.213 15.7517L148.876 11.5739H149.318L149.981 15.7517H148.213ZM132.337 10.621C132.227 10.3645 131.969 10.2546 131.711 10.2912H131.674H127.733C127.696 10.2912 127.659 10.2912 127.585 10.2912C127.328 10.2546 127.033 10.3645 126.886 10.621L126.665 11.0241C126.48 11.354 126.628 11.7571 126.922 11.9037C127.033 11.9403 127.143 11.977 127.217 11.977C127.438 11.977 127.696 11.867 127.806 11.6105L127.843 11.5372H128.985V20.3326C128.764 20.4425 128.617 20.6624 128.617 20.919C128.617 21.2854 128.912 21.5786 129.28 21.5786H130.017C130.385 21.5786 130.68 21.2854 130.68 20.919C130.68 20.6624 130.532 20.4425 130.311 20.3326V11.5739H131.306L131.343 11.6472C131.453 11.867 131.674 12.0136 131.932 12.0136C132.042 12.0136 132.153 11.977 132.227 11.9403C132.558 11.7571 132.669 11.3906 132.484 11.0608L132.337 10.621Z" fill="#2C479E"/>
</svg>
